<mxfile host="Electron" modified="2023-04-20T12:30:29.342Z" agent="Mozilla/5.0 (X11; Linux x86_64) AppleWebKit/537.36 (KHTML, like Gecko) draw.io/21.1.2 Chrome/106.0.5249.199 Electron/21.4.3 Safari/537.36" etag="bc06dZtLy5GQUrmvr8Jk" version="21.1.2" type="device">
  <diagram name="Page-1" id="AEzNlKYkzQXJz8IcKDJt">
    <mxGraphModel dx="2910" dy="815" grid="1" gridSize="10" guides="1" tooltips="1" connect="1" arrows="1" fold="1" page="1" pageScale="1" pageWidth="850" pageHeight="1100" math="0" shadow="0">
      <root>
        <mxCell id="0" />
        <mxCell id="1" parent="0" />
        <mxCell id="xmoZ6tSumFwIW75n1Kq9-9" style="edgeStyle=orthogonalEdgeStyle;rounded=0;orthogonalLoop=1;jettySize=auto;html=1;exitX=0.25;exitY=0;exitDx=0;exitDy=0;entryX=0.75;entryY=1;entryDx=0;entryDy=0;" edge="1" parent="1" source="xmoZ6tSumFwIW75n1Kq9-1" target="xmoZ6tSumFwIW75n1Kq9-8">
          <mxGeometry relative="1" as="geometry" />
        </mxCell>
        <mxCell id="xmoZ6tSumFwIW75n1Kq9-10" value="load complettion" style="edgeLabel;html=1;align=center;verticalAlign=middle;resizable=0;points=[];" vertex="1" connectable="0" parent="xmoZ6tSumFwIW75n1Kq9-9">
          <mxGeometry x="-0.2706" y="3" relative="1" as="geometry">
            <mxPoint as="offset" />
          </mxGeometry>
        </mxCell>
        <mxCell id="xmoZ6tSumFwIW75n1Kq9-31" style="edgeStyle=orthogonalEdgeStyle;rounded=0;orthogonalLoop=1;jettySize=auto;html=1;exitX=1;exitY=0.25;exitDx=0;exitDy=0;" edge="1" parent="1" source="xmoZ6tSumFwIW75n1Kq9-1">
          <mxGeometry relative="1" as="geometry">
            <mxPoint x="560" y="470.06060606060623" as="targetPoint" />
          </mxGeometry>
        </mxCell>
        <mxCell id="xmoZ6tSumFwIW75n1Kq9-32" style="edgeStyle=orthogonalEdgeStyle;rounded=0;orthogonalLoop=1;jettySize=auto;html=1;exitX=1;exitY=0.75;exitDx=0;exitDy=0;entryX=1;entryY=0.75;entryDx=0;entryDy=0;" edge="1" parent="1" target="xmoZ6tSumFwIW75n1Kq9-1">
          <mxGeometry relative="1" as="geometry">
            <mxPoint x="560" y="530.0606060606062" as="sourcePoint" />
          </mxGeometry>
        </mxCell>
        <mxCell id="xmoZ6tSumFwIW75n1Kq9-37" style="edgeStyle=orthogonalEdgeStyle;rounded=0;orthogonalLoop=1;jettySize=auto;html=1;exitX=0;exitY=0.25;exitDx=0;exitDy=0;entryX=0.75;entryY=0;entryDx=0;entryDy=0;" edge="1" parent="1" source="xmoZ6tSumFwIW75n1Kq9-1" target="xmoZ6tSumFwIW75n1Kq9-17">
          <mxGeometry relative="1" as="geometry">
            <Array as="points">
              <mxPoint x="190" y="470" />
              <mxPoint x="190" y="340" />
              <mxPoint x="-630" y="340" />
            </Array>
          </mxGeometry>
        </mxCell>
        <mxCell id="xmoZ6tSumFwIW75n1Kq9-38" value="full?" style="edgeLabel;html=1;align=center;verticalAlign=middle;resizable=0;points=[];" vertex="1" connectable="0" parent="xmoZ6tSumFwIW75n1Kq9-37">
          <mxGeometry x="-0.8987" y="-6" relative="1" as="geometry">
            <mxPoint y="6" as="offset" />
          </mxGeometry>
        </mxCell>
        <mxCell id="xmoZ6tSumFwIW75n1Kq9-1" value="MemQueue" style="rounded=0;whiteSpace=wrap;html=1;fillColor=#d5e8d4;strokeColor=#82b366;" vertex="1" parent="1">
          <mxGeometry x="280" y="440" width="200" height="120" as="geometry" />
        </mxCell>
        <mxCell id="xmoZ6tSumFwIW75n1Kq9-3" style="edgeStyle=orthogonalEdgeStyle;rounded=0;orthogonalLoop=1;jettySize=auto;html=1;exitX=1;exitY=0.5;exitDx=0;exitDy=0;entryX=0.5;entryY=1;entryDx=0;entryDy=0;" edge="1" parent="1" source="xmoZ6tSumFwIW75n1Kq9-2" target="xmoZ6tSumFwIW75n1Kq9-1">
          <mxGeometry relative="1" as="geometry" />
        </mxCell>
        <mxCell id="xmoZ6tSumFwIW75n1Kq9-4" value="tail" style="edgeLabel;html=1;align=center;verticalAlign=middle;resizable=0;points=[];" vertex="1" connectable="0" parent="xmoZ6tSumFwIW75n1Kq9-3">
          <mxGeometry x="-0.2808" y="1" relative="1" as="geometry">
            <mxPoint as="offset" />
          </mxGeometry>
        </mxCell>
        <mxCell id="xmoZ6tSumFwIW75n1Kq9-28" style="edgeStyle=orthogonalEdgeStyle;rounded=0;orthogonalLoop=1;jettySize=auto;html=1;exitX=0;exitY=0.5;exitDx=0;exitDy=0;entryX=0.25;entryY=1;entryDx=0;entryDy=0;" edge="1" parent="1" source="xmoZ6tSumFwIW75n1Kq9-2" target="xmoZ6tSumFwIW75n1Kq9-14">
          <mxGeometry relative="1" as="geometry" />
        </mxCell>
        <mxCell id="xmoZ6tSumFwIW75n1Kq9-29" value="head" style="edgeLabel;html=1;align=center;verticalAlign=middle;resizable=0;points=[];" vertex="1" connectable="0" parent="xmoZ6tSumFwIW75n1Kq9-28">
          <mxGeometry x="-0.0353" y="-1" relative="1" as="geometry">
            <mxPoint as="offset" />
          </mxGeometry>
        </mxCell>
        <mxCell id="xmoZ6tSumFwIW75n1Kq9-35" style="edgeStyle=orthogonalEdgeStyle;rounded=0;orthogonalLoop=1;jettySize=auto;html=1;exitX=1;exitY=0.5;exitDx=0;exitDy=0;entryX=1;entryY=0.75;entryDx=0;entryDy=0;" edge="1" parent="1" source="xmoZ6tSumFwIW75n1Kq9-2" target="xmoZ6tSumFwIW75n1Kq9-16">
          <mxGeometry relative="1" as="geometry" />
        </mxCell>
        <mxCell id="xmoZ6tSumFwIW75n1Kq9-2" value="PhysRegIdAllocator" style="rounded=0;whiteSpace=wrap;html=1;fillColor=#e1d5e7;strokeColor=#9673a6;" vertex="1" parent="1">
          <mxGeometry x="240" y="1100" width="120" height="60" as="geometry" />
        </mxCell>
        <mxCell id="xmoZ6tSumFwIW75n1Kq9-6" style="edgeStyle=orthogonalEdgeStyle;rounded=0;orthogonalLoop=1;jettySize=auto;html=1;exitX=1;exitY=0.5;exitDx=0;exitDy=0;entryX=0;entryY=0.5;entryDx=0;entryDy=0;" edge="1" parent="1" source="xmoZ6tSumFwIW75n1Kq9-5" target="xmoZ6tSumFwIW75n1Kq9-1">
          <mxGeometry relative="1" as="geometry" />
        </mxCell>
        <mxCell id="xmoZ6tSumFwIW75n1Kq9-12" value="mem package" style="edgeLabel;html=1;align=center;verticalAlign=middle;resizable=0;points=[];" vertex="1" connectable="0" parent="xmoZ6tSumFwIW75n1Kq9-6">
          <mxGeometry x="-0.2272" y="-1" relative="1" as="geometry">
            <mxPoint as="offset" />
          </mxGeometry>
        </mxCell>
        <mxCell id="xmoZ6tSumFwIW75n1Kq9-7" style="edgeStyle=orthogonalEdgeStyle;rounded=0;orthogonalLoop=1;jettySize=auto;html=1;exitX=0.5;exitY=0;exitDx=0;exitDy=0;entryX=0.25;entryY=1;entryDx=0;entryDy=0;" edge="1" parent="1" source="xmoZ6tSumFwIW75n1Kq9-5" target="xmoZ6tSumFwIW75n1Kq9-8">
          <mxGeometry relative="1" as="geometry">
            <mxPoint x="80" y="250" as="targetPoint" />
          </mxGeometry>
        </mxCell>
        <mxCell id="xmoZ6tSumFwIW75n1Kq9-11" value="exe event" style="edgeLabel;html=1;align=center;verticalAlign=middle;resizable=0;points=[];" vertex="1" connectable="0" parent="xmoZ6tSumFwIW75n1Kq9-7">
          <mxGeometry x="-0.225" y="2" relative="1" as="geometry">
            <mxPoint as="offset" />
          </mxGeometry>
        </mxCell>
        <mxCell id="xmoZ6tSumFwIW75n1Kq9-5" value="Execute" style="rounded=0;whiteSpace=wrap;html=1;fillColor=#fff2cc;strokeColor=#d6b656;" vertex="1" parent="1">
          <mxGeometry x="-140" y="360" width="240" height="280" as="geometry" />
        </mxCell>
        <mxCell id="xmoZ6tSumFwIW75n1Kq9-13" style="edgeStyle=orthogonalEdgeStyle;rounded=0;orthogonalLoop=1;jettySize=auto;html=1;exitX=0.5;exitY=0;exitDx=0;exitDy=0;entryX=0.75;entryY=0;entryDx=0;entryDy=0;" edge="1" parent="1" source="xmoZ6tSumFwIW75n1Kq9-8" target="xmoZ6tSumFwIW75n1Kq9-1">
          <mxGeometry relative="1" as="geometry" />
        </mxCell>
        <mxCell id="xmoZ6tSumFwIW75n1Kq9-15" style="edgeStyle=orthogonalEdgeStyle;rounded=0;orthogonalLoop=1;jettySize=auto;html=1;exitX=0.5;exitY=0;exitDx=0;exitDy=0;entryX=0.5;entryY=0;entryDx=0;entryDy=0;" edge="1" parent="1" source="xmoZ6tSumFwIW75n1Kq9-8" target="xmoZ6tSumFwIW75n1Kq9-14">
          <mxGeometry relative="1" as="geometry" />
        </mxCell>
        <mxCell id="xmoZ6tSumFwIW75n1Kq9-25" style="edgeStyle=orthogonalEdgeStyle;rounded=0;orthogonalLoop=1;jettySize=auto;html=1;exitX=0.5;exitY=0;exitDx=0;exitDy=0;entryX=0.5;entryY=0;entryDx=0;entryDy=0;" edge="1" parent="1" source="xmoZ6tSumFwIW75n1Kq9-8" target="xmoZ6tSumFwIW75n1Kq9-17">
          <mxGeometry relative="1" as="geometry" />
        </mxCell>
        <mxCell id="xmoZ6tSumFwIW75n1Kq9-26" value="event bus" style="edgeLabel;html=1;align=center;verticalAlign=middle;resizable=0;points=[];" vertex="1" connectable="0" parent="xmoZ6tSumFwIW75n1Kq9-25">
          <mxGeometry x="0.2204" y="5" relative="1" as="geometry">
            <mxPoint as="offset" />
          </mxGeometry>
        </mxCell>
        <mxCell id="xmoZ6tSumFwIW75n1Kq9-34" style="edgeStyle=orthogonalEdgeStyle;rounded=0;orthogonalLoop=1;jettySize=auto;html=1;exitX=0.5;exitY=0;exitDx=0;exitDy=0;entryX=0.5;entryY=0;entryDx=0;entryDy=0;" edge="1" parent="1" source="xmoZ6tSumFwIW75n1Kq9-8" target="xmoZ6tSumFwIW75n1Kq9-16">
          <mxGeometry relative="1" as="geometry" />
        </mxCell>
        <mxCell id="xmoZ6tSumFwIW75n1Kq9-42" style="edgeStyle=orthogonalEdgeStyle;rounded=0;orthogonalLoop=1;jettySize=auto;html=1;exitX=0.5;exitY=0;exitDx=0;exitDy=0;entryX=0.5;entryY=0;entryDx=0;entryDy=0;" edge="1" parent="1" source="xmoZ6tSumFwIW75n1Kq9-8" target="xmoZ6tSumFwIW75n1Kq9-39">
          <mxGeometry relative="1" as="geometry" />
        </mxCell>
        <mxCell id="xmoZ6tSumFwIW75n1Kq9-8" value="event&lt;br&gt;arbitration" style="rounded=0;whiteSpace=wrap;html=1;fillColor=#f5f5f5;fontColor=#333333;strokeColor=#666666;" vertex="1" parent="1">
          <mxGeometry x="280" y="180" width="120" height="60" as="geometry" />
        </mxCell>
        <mxCell id="xmoZ6tSumFwIW75n1Kq9-18" style="edgeStyle=orthogonalEdgeStyle;rounded=0;orthogonalLoop=1;jettySize=auto;html=1;exitX=1;exitY=0.5;exitDx=0;exitDy=0;entryX=0;entryY=0.5;entryDx=0;entryDy=0;" edge="1" parent="1" source="xmoZ6tSumFwIW75n1Kq9-14" target="xmoZ6tSumFwIW75n1Kq9-17">
          <mxGeometry relative="1" as="geometry" />
        </mxCell>
        <mxCell id="xmoZ6tSumFwIW75n1Kq9-19" value="issue package" style="edgeLabel;html=1;align=center;verticalAlign=middle;resizable=0;points=[];" vertex="1" connectable="0" parent="xmoZ6tSumFwIW75n1Kq9-18">
          <mxGeometry x="-0.1967" y="-2" relative="1" as="geometry">
            <mxPoint as="offset" />
          </mxGeometry>
        </mxCell>
        <mxCell id="xmoZ6tSumFwIW75n1Kq9-27" style="edgeStyle=orthogonalEdgeStyle;rounded=0;orthogonalLoop=1;jettySize=auto;html=1;exitX=0.75;exitY=1;exitDx=0;exitDy=0;entryX=0.235;entryY=1;entryDx=0;entryDy=0;entryPerimeter=0;" edge="1" parent="1" source="xmoZ6tSumFwIW75n1Kq9-14" target="xmoZ6tSumFwIW75n1Kq9-20">
          <mxGeometry relative="1" as="geometry">
            <Array as="points">
              <mxPoint x="-990" y="730" />
              <mxPoint x="-400" y="730" />
              <mxPoint x="-400" y="640" />
            </Array>
          </mxGeometry>
        </mxCell>
        <mxCell id="xmoZ6tSumFwIW75n1Kq9-14" value="Decoder" style="rounded=0;whiteSpace=wrap;html=1;fillColor=#fff2cc;strokeColor=#d6b656;" vertex="1" parent="1">
          <mxGeometry x="-1170" y="360" width="240" height="280" as="geometry" />
        </mxCell>
        <mxCell id="xmoZ6tSumFwIW75n1Kq9-36" style="edgeStyle=orthogonalEdgeStyle;rounded=0;orthogonalLoop=1;jettySize=auto;html=1;exitX=0;exitY=0.5;exitDx=0;exitDy=0;entryX=0.75;entryY=1;entryDx=0;entryDy=0;" edge="1" parent="1" source="xmoZ6tSumFwIW75n1Kq9-16" target="xmoZ6tSumFwIW75n1Kq9-20">
          <mxGeometry relative="1" as="geometry" />
        </mxCell>
        <mxCell id="xmoZ6tSumFwIW75n1Kq9-16" value="Retirement" style="rounded=0;whiteSpace=wrap;html=1;fillColor=#fff2cc;strokeColor=#d6b656;" vertex="1" parent="1">
          <mxGeometry x="-290" y="830" width="140" height="150" as="geometry" />
        </mxCell>
        <mxCell id="xmoZ6tSumFwIW75n1Kq9-21" style="edgeStyle=orthogonalEdgeStyle;rounded=0;orthogonalLoop=1;jettySize=auto;html=1;exitX=1;exitY=0.75;exitDx=0;exitDy=0;entryX=0;entryY=0.5;entryDx=0;entryDy=0;" edge="1" parent="1" source="xmoZ6tSumFwIW75n1Kq9-17" target="xmoZ6tSumFwIW75n1Kq9-20">
          <mxGeometry relative="1" as="geometry" />
        </mxCell>
        <mxCell id="xmoZ6tSumFwIW75n1Kq9-22" style="edgeStyle=orthogonalEdgeStyle;rounded=0;orthogonalLoop=1;jettySize=auto;html=1;exitX=1;exitY=0.25;exitDx=0;exitDy=0;entryX=0;entryY=0.25;entryDx=0;entryDy=0;" edge="1" parent="1" source="xmoZ6tSumFwIW75n1Kq9-17" target="xmoZ6tSumFwIW75n1Kq9-5">
          <mxGeometry relative="1" as="geometry" />
        </mxCell>
        <mxCell id="xmoZ6tSumFwIW75n1Kq9-17" value="IssueQueue" style="rounded=0;whiteSpace=wrap;html=1;fillColor=#d5e8d4;strokeColor=#82b366;" vertex="1" parent="1">
          <mxGeometry x="-810" y="360" width="240" height="280" as="geometry" />
        </mxCell>
        <mxCell id="xmoZ6tSumFwIW75n1Kq9-23" style="edgeStyle=orthogonalEdgeStyle;rounded=0;orthogonalLoop=1;jettySize=auto;html=1;exitX=1;exitY=0.5;exitDx=0;exitDy=0;entryX=0;entryY=0.75;entryDx=0;entryDy=0;" edge="1" parent="1" source="xmoZ6tSumFwIW75n1Kq9-20" target="xmoZ6tSumFwIW75n1Kq9-5">
          <mxGeometry relative="1" as="geometry" />
        </mxCell>
        <mxCell id="xmoZ6tSumFwIW75n1Kq9-20" value="ROB" style="rounded=0;whiteSpace=wrap;html=1;fillColor=#f8cecc;strokeColor=#b85450;" vertex="1" parent="1">
          <mxGeometry x="-440" y="500" width="170" height="140" as="geometry" />
        </mxCell>
        <mxCell id="xmoZ6tSumFwIW75n1Kq9-33" value="Memory" style="rounded=0;whiteSpace=wrap;html=1;fillColor=#dae8fc;strokeColor=#6c8ebf;" vertex="1" parent="1">
          <mxGeometry x="560" y="440" width="200" height="120" as="geometry" />
        </mxCell>
        <mxCell id="xmoZ6tSumFwIW75n1Kq9-40" style="edgeStyle=orthogonalEdgeStyle;rounded=0;orthogonalLoop=1;jettySize=auto;html=1;exitX=1;exitY=0.5;exitDx=0;exitDy=0;entryX=0;entryY=0.5;entryDx=0;entryDy=0;" edge="1" parent="1" source="xmoZ6tSumFwIW75n1Kq9-39" target="xmoZ6tSumFwIW75n1Kq9-14">
          <mxGeometry relative="1" as="geometry" />
        </mxCell>
        <mxCell id="xmoZ6tSumFwIW75n1Kq9-41" value="instruction package" style="edgeLabel;html=1;align=center;verticalAlign=middle;resizable=0;points=[];" vertex="1" connectable="0" parent="xmoZ6tSumFwIW75n1Kq9-40">
          <mxGeometry x="-0.3009" relative="1" as="geometry">
            <mxPoint x="18" as="offset" />
          </mxGeometry>
        </mxCell>
        <mxCell id="xmoZ6tSumFwIW75n1Kq9-39" value="Instruction Streamer" style="rounded=0;whiteSpace=wrap;html=1;fillColor=#fff2cc;strokeColor=#d6b656;" vertex="1" parent="1">
          <mxGeometry x="-1550" y="360" width="240" height="280" as="geometry" />
        </mxCell>
      </root>
    </mxGraphModel>
  </diagram>
</mxfile>
